# xmcd CD database file
#
# Track frame offsets:
#	150
#	10640
#	24667
#	37383
#	50424
#	61576
#	76410
#	92251
#	104912
#	113190
#	126449
#	137843
#	149125
#	159373
#	171521
#
# Disc length: 2469 seconds
#
# Revision: 0
# Processed by: cddbd v1.5.2PL0 Copyright (c) Steve Scherf et al.
# Submitted via: CDex 1.51
#
DISCID=d409a30f
DTITLE=Slim Whitman - Rose Marie  CD1
DYEAR=2005
DGENRE=Country
TTITLE0=Rose Marie
TTITLE1=Indian Love Call
TTITLE2=Tennessee Waltz
TTITLE3=Red Sails in the Sunset
TTITLE4=Singin' the Blues
TTITLE5=Mocking Bird Hill
TTITLE6=Down in the Valley
TTITLE7=Half as Much
TTITLE8=Have you ever been Lonely
TTITLE9=Till I Waltzed with You
TTITLE10=It Is No Secret
TTITLE11=Singing Hills
TTITLE12=Any Time Your Felling Lonely
TTITLE13=I'm Casting My Lasso Toward the Sky
TTITLE14=Please Paint a Rose on the Garden Wall
EXTD=YEAR: 2005
EXTT0=
EXTT1=
EXTT2=
EXTT3=
EXTT4=
EXTT5=
EXTT6=
EXTT7=
EXTT8=
EXTT9=
EXTT10=
EXTT11=
EXTT12=
EXTT13=
EXTT14=
PLAYORDER=
